<svg width="18" height="16" viewBox="0 0 18 16" fill="none" xmlns="http://www.w3.org/2000/svg">
<path d="M8.24618 0C7.2769 0 6.45111 0.613636 6.13778 1.45455H0V2.90909H6.13778C6.45111 3.75 7.2769 4.36364 8.24618 4.36364C9.21546 4.36364 10.0412 3.75 10.3546 2.90909H17.9917V1.45455H10.3546C10.0412 0.613636 9.21546 0 8.24618 0ZM8.24618 1.45455C8.66786 1.45455 8.99583 1.77273 8.99583 2.18182C8.99583 2.59091 8.66786 2.90909 8.24618 2.90909C7.8245 2.90909 7.49653 2.59091 7.49653 2.18182C7.49653 1.77273 7.8245 1.45455 8.24618 1.45455ZM13.4938 5.81818C12.5245 5.81818 11.6987 6.43182 11.3854 7.27273H0V8.72727H11.3854C11.6987 9.56818 12.5245 10.1818 13.4938 10.1818C14.463 10.1818 15.2888 9.56818 15.6021 8.72727H17.9917V7.27273H15.6021C15.2888 6.43182 14.463 5.81818 13.4938 5.81818ZM13.4938 7.27273C13.9154 7.27273 14.2434 7.59091 14.2434 8C14.2434 8.40909 13.9154 8.72727 13.4938 8.72727C13.0721 8.72727 12.7441 8.40909 12.7441 8C12.7441 7.59091 13.0721 7.27273 13.4938 7.27273ZM5.24757 11.6364C4.27829 11.6364 3.4525 12.25 3.13917 13.0909H0V14.5455H3.13917C3.4525 15.3864 4.27829 16 5.24757 16C6.21685 16 7.04264 15.3864 7.35597 14.5455H17.9917V13.0909H7.35597C7.04264 12.25 6.21685 11.6364 5.24757 11.6364ZM5.24757 13.0909C5.66925 13.0909 5.99722 13.4091 5.99722 13.8182C5.99722 14.2273 5.66925 14.5455 5.24757 14.5455C4.82589 14.5455 4.49792 14.2273 4.49792 13.8182C4.49792 13.4091 4.82589 13.0909 5.24757 13.0909Z" fill="white"/>
</svg>
