<?xml version="1.0" encoding="UTF-8"?><!DOCTYPE svg PUBLIC "-//W3C//DTD SVG 1.1//EN" "http://www.w3.org/Graphics/SVG/1.1/DTD/svg11.dtd"><svg xmlns="http://www.w3.org/2000/svg" xmlns:xlink="http://www.w3.org/1999/xlink"><defs>
<filter id="filter0_d" x="0" y="0" width="63" height="63" filterUnits="userSpaceOnUse" color-interpolation-filters="sRGB">
<feFlood flood-opacity="0" result="BackgroundImageFix"/>
<feColorMatrix in="SourceAlpha" type="matrix" values="0 0 0 0 0 0 0 0 0 0 0 0 0 0 0 0 0 0 127 0"/>
<feOffset dx="-6" dy="8"/>
<feGaussianBlur stdDeviation="4"/>
<feColorMatrix type="matrix" values="0 0 0 0 0 0 0 0 0 0 0 0 0 0 0 0 0 0 0.1 0"/>
<feBlend mode="normal" in2="BackgroundImageFix" result="effect1_dropShadow"/>
<feBlend mode="normal" in="SourceGraphic" in2="effect1_dropShadow" result="shape"/>
</filter>
<radialGradient id="paint0_radial" cx="0" cy="0" r="1" gradientUnits="userSpaceOnUse" gradientTransform="translate(41.8436 11.6763) rotate(110.376) scale(33.5347)">
<stop stop-color="#FEC8C1"/>
<stop offset="1" stop-color="#E56A59" stop-opacity="0"/>
</radialGradient>
</defs><symbol id="fb" viewBox="0 0 10 20">
<path d="M10 0V4H8C7.31 4 7 4.81 7 5.5V8H10V12H7V20H3V12H0V8H3V4C3 1.79 4.79 0 7 0H10Z"/>
</symbol><symbol id="filter" viewBox="0 0 18 16">
<path d="M8.24618 0C7.2769 0 6.45111 0.613636 6.13778 1.45455H0V2.90909H6.13778C6.45111 3.75 7.2769 4.36364 8.24618 4.36364C9.21546 4.36364 10.0412 3.75 10.3546 2.90909H17.9917V1.45455H10.3546C10.0412 0.613636 9.21546 0 8.24618 0ZM8.24618 1.45455C8.66786 1.45455 8.99583 1.77273 8.99583 2.18182C8.99583 2.59091 8.66786 2.90909 8.24618 2.90909C7.8245 2.90909 7.49653 2.59091 7.49653 2.18182C7.49653 1.77273 7.8245 1.45455 8.24618 1.45455ZM13.4938 5.81818C12.5245 5.81818 11.6987 6.43182 11.3854 7.27273H0V8.72727H11.3854C11.6987 9.56818 12.5245 10.1818 13.4938 10.1818C14.463 10.1818 15.2888 9.56818 15.6021 8.72727H17.9917V7.27273H15.6021C15.2888 6.43182 14.463 5.81818 13.4938 5.81818ZM13.4938 7.27273C13.9154 7.27273 14.2434 7.59091 14.2434 8C14.2434 8.40909 13.9154 8.72727 13.4938 8.72727C13.0721 8.72727 12.7441 8.40909 12.7441 8C12.7441 7.59091 13.0721 7.27273 13.4938 7.27273ZM5.24757 11.6364C4.27829 11.6364 3.4525 12.25 3.13917 13.0909H0V14.5455H3.13917C3.4525 15.3864 4.27829 16 5.24757 16C6.21685 16 7.04264 15.3864 7.35597 14.5455H17.9917V13.0909H7.35597C7.04264 12.25 6.21685 11.6364 5.24757 11.6364ZM5.24757 13.0909C5.66925 13.0909 5.99722 13.4091 5.99722 13.8182C5.99722 14.2273 5.66925 14.5455 5.24757 14.5455C4.82589 14.5455 4.49792 14.2273 4.49792 13.8182C4.49792 13.4091 4.82589 13.0909 5.24757 13.0909Z" fill="white"/>
</symbol><symbol id="inst" viewBox="0 0 20 20">
<path d="M5.8 0H14.2C17.4 0 20 2.6 20 5.8V14.2C20 17.4 17.4 20 14.2 20H5.8C2.6 20 0 17.4 0 14.2V5.8C0 2.6 2.6 0 5.8 0ZM5.6 2C3.61 2 2 3.61 2 5.6V14.4C2 16.39 3.61 18 5.6 18H14.4C16.39 18 18 16.39 18 14.4V5.6C18 3.61 16.39 2 14.4 2H5.6ZM15.25 3.5C15.94 3.5 16.5 4.06 16.5 4.75C16.5 5.44 15.94 6 15.25 6C14.56 6 14 5.44 14 4.75C14 4.06 14.56 3.5 15.25 3.5ZM10 5C12.76 5 15 7.24 15 10C15 12.76 12.76 15 10 15C7.24 15 5 12.76 5 10C5 7.24 7.24 5 10 5ZM10 7C8.34 7 7 8.34 7 10C7 11.66 8.34 13 10 13C11.66 13 13 11.66 13 10C13 8.34 11.66 7 10 7Z"/>
</symbol><symbol id="logo">
<g filter="url(#filter0_d)">
<circle cx="37.5" cy="23.5" r="23.5" fill="#D13233"/>
<circle cx="37.5" cy="23.5" r="23.5" fill="url(#paint0_radial)"/>
</g>

</symbol><symbol id="tw" viewBox="0 0 21 17">
<path d="M20.92 2C20.15 2.35 19.32 2.58 18.46 2.69C19.34 2.16 20.02 1.32 20.34 0.31C19.51 0.81 18.59 1.16 17.62 1.36C16.83 0.5 15.72 0 14.46 0C12.11 0 10.19 1.92 10.19 4.29C10.19 4.63 10.23 4.96 10.3 5.27C6.74 5.09 3.57 3.38 1.46 0.79C1.09 1.42 0.879997 2.16 0.879997 2.94C0.879997 4.43 1.63 5.75 2.79 6.5C2.08 6.5 1.42 6.3 0.839996 6C0.839996 6 0.839996 6 0.839996 6.03C0.839996 8.11 2.32 9.85 4.28 10.24C3.92 10.34 3.54 10.39 3.15 10.39C2.88 10.39 2.61 10.36 2.35 10.31C2.89 12 4.46 13.26 6.35 13.29C4.89 14.45 3.04 15.13 1.02 15.13C0.679997 15.13 0.34 15.11 0 15.07C1.9 16.29 4.16 17 6.58 17C14.46 17 18.79 10.46 18.79 4.79C18.79 4.6 18.79 4.42 18.78 4.23C19.62 3.63 20.34 2.87 20.92 2Z"/>
</symbol><symbol id="vk" viewBox="0 0 20 12">
<path d="M17.2005 7.6C18.7505 9.04 19.0705 9.73 19.1205 9.82C19.7605 10.88 18.4205 10.96 18.4205 10.96L15.8405 11C15.8405 11 15.2805 11.11 14.5605 10.61C13.5905 9.95 12.6605 8.22 11.9705 8.45C11.2605 8.68 11.2805 10.23 11.2805 10.23C11.2805 10.23 11.2805 10.45 11.1205 10.62C10.9405 10.81 10.5905 10.74 10.5905 10.74H9.44049C9.44049 10.74 6.89049 11 4.66049 8.67C2.21049 6.13 0.0504879 1.13 0.0504879 1.13C0.0504879 1.13 -0.06951 0.83 0.06049 0.66C0.21049 0.5 0.63049 0.5 0.63049 0.5H3.39048C3.39048 0.5 3.66049 0.5 3.83049 0.66C3.98049 0.77 4.07049 1 4.07049 1C4.07049 1 4.51049 2.11 5.11049 3.13C6.26049 5.12 6.79049 5.55 7.16049 5.34C7.76049 5.03 7.59048 2.53 7.59048 2.53C7.59048 2.53 7.60049 1.62 7.30049 1.22C7.07049 0.91 6.63049 0.81 6.44049 0.79C6.28049 0.77 6.5405 0.41 6.8705 0.24C7.3705 -2.23517e-07 8.24048 0 9.28048 0C10.0905 0 10.3205 0.0600001 10.6305 0.13C11.5905 0.36 11.2605 1.25 11.2605 3.37C11.2605 4.06 11.1605 5 11.6305 5.33C11.8405 5.47 12.3605 5.35 13.6605 3.16C14.2605 2.12 14.7205 0.89 14.7205 0.89C14.7205 0.89 14.8205 0.68 14.9705 0.58C15.1305 0.5 15.3505 0.5 15.3505 0.5H18.2505C18.2505 0.5 19.1305 0.4 19.2705 0.79C19.4205 1.2 18.9405 2.17 17.7505 3.74C15.8105 6.34 15.5905 6.1 17.2005 7.6Z"/>
</symbol></svg>